<svg xmlns="http://www.w3.org/2000/svg" width="107" height="107" viewBox="0 0 107 107">
  <path id="Subtraction_9" data-name="Subtraction 9" d="M53.5,107A53.514,53.514,0,0,1,32.675,4.2,53.514,53.514,0,0,1,74.324,102.8,53.167,53.167,0,0,1,53.5,107Zm-.614-80.25a26.133,26.133,0,0,0-26.132,26.6A28.054,28.054,0,0,0,28.114,62a27.491,27.491,0,0,0,3.8,7.541,27.085,27.085,0,0,0,5.841,5.96,26.636,26.636,0,0,0,7.47,3.909,2.716,2.716,0,0,0,.468.044c.024,0,.049,0,.073,0A1.311,1.311,0,0,0,47.114,78.1c0-.236,0-.863-.008-1.653-.01-1.191-.025-3.43-.025-5.038a15.568,15.568,0,0,1-2.8.262c-.078,0-.156,0-.234,0a9.521,9.521,0,0,1-3.5-.662,4.575,4.575,0,0,1-2.7-2.852,13.1,13.1,0,0,0-.845-1.688,5.8,5.8,0,0,0-2.186-2.3c-.122-.085-1.189-.846-1.047-1.317.076-.241.463-.362,1.147-.362H35a5.353,5.353,0,0,1,1.543.431,5.662,5.662,0,0,1,2.666,2.38A6.04,6.04,0,0,0,41.49,67.69a5.178,5.178,0,0,0,2.458.624H44a7.773,7.773,0,0,0,3.146-.731,6.13,6.13,0,0,1,1.741-3.672,37.626,37.626,0,0,1-4.481-.693,11.2,11.2,0,0,1-3.922-1.65,7.92,7.92,0,0,1-2.778-3.491,15.586,15.586,0,0,1-1.056-6.21,8.256,8.256,0,0,1,2.57-6.418,10.279,10.279,0,0,1,.283-7.4,2.342,2.342,0,0,1,.646-.092h.023a9.969,9.969,0,0,1,4.362,1.519,28.844,28.844,0,0,1,2.489,1.516,25.744,25.744,0,0,1,13.684,0l.01-.007a28.475,28.475,0,0,1,2.473-1.509,10.932,10.932,0,0,1,4.359-1.519h.038a2.25,2.25,0,0,1,.637.094,10.268,10.268,0,0,1,.282,7.4c1.646,1.821,2.813,3.349,2.813,6.418a15.143,15.143,0,0,1-1.1,6.222,8.008,8.008,0,0,1-2.873,3.486c-2.412,1.643-5.657,2.009-8.52,2.333l-.02,0c.692.6,1.852,2.051,1.852,5.056,0,2.156-.012,4.639-.021,6.453v.2l0,.529v.013c0,.482,0,.9,0,1.224v.226c0,.2,0,.354,0,.46a1.317,1.317,0,0,0,1.319,1.373c.034,0,.067,0,.1,0a2.465,2.465,0,0,0,.465-.045,26.122,26.122,0,0,0,7.456-3.9,26.5,26.5,0,0,0,5.775-5.951A27.372,27.372,0,0,0,79.488,62a28.567,28.567,0,0,0,1.323-8.661,26.035,26.035,0,0,0-8.019-18.964,26.83,26.83,0,0,0-8.7-5.6,28.386,28.386,0,0,0-10.549-2.026h-.1C53.254,26.752,53.069,26.75,52.885,26.75ZM44.266,68.8h-.038c-.32,0-.57.172-.57.392s.226.4.525.4h.085c.32,0,.57-.173.57-.394s-.233-.4-.532-.4Zm2-.282c-.331.08-.532.295-.5.534a.432.432,0,0,0,.412.309.384.384,0,0,0,.053,0,.761.761,0,0,0,.177-.02c.322-.078.534-.289.5-.5-.033-.181-.273-.317-.559-.317Zm-4.376-.087a.493.493,0,0,0-.443.277.3.3,0,0,0,.031.25.971.971,0,0,0,.669.327h.038a.447.447,0,0,0,.407-.264c.066-.219-.14-.47-.469-.57a.645.645,0,0,0-.161-.021h-.023A.409.409,0,0,0,41.894,68.428Zm-1.939-1.2v0a.326.326,0,0,0-.246.114.282.282,0,0,0-.1.229.621.621,0,0,0,.239.456.678.678,0,0,0,.456.219.31.31,0,0,0,.251-.114.286.286,0,0,0,.076-.217.685.685,0,0,0-.217-.456.66.66,0,0,0-.457-.229Zm-1.311-1.552a.3.3,0,0,0-.179.063.265.265,0,0,0-.121.186.622.622,0,0,0,.121.456.637.637,0,0,0,.474.293h.009a.224.224,0,0,0,.13-.043.5.5,0,0,0,0-.675.55.55,0,0,0-.434-.279Zm-1.1-1.407a.266.266,0,0,0-.188.074.232.232,0,0,0-.086.168.569.569,0,0,0,.162.4.561.561,0,0,0,.381.181A.265.265,0,0,0,38,65.02a.222.222,0,0,0,.085-.166.59.59,0,0,0-.541-.581Zm-1.125-.92a.307.307,0,0,0-.241.115.2.2,0,0,0-.014.163.491.491,0,0,0,.266.262.389.389,0,0,0,.216.065h.011a.272.272,0,0,0,.241-.141.206.206,0,0,0,.014-.163.491.491,0,0,0-.265-.262.677.677,0,0,0-.21-.036A.033.033,0,0,0,36.416,63.351Z" transform="translate(0.001)" fill="#fff"/>
</svg>
