<svg xmlns="http://www.w3.org/2000/svg" width="107" height="107" viewBox="0 0 107 107">
  <path id="Subtraction_7" data-name="Subtraction 7" d="M53.5,107A53.514,53.514,0,0,1,32.675,4.2,53.514,53.514,0,0,1,74.324,102.8,53.167,53.167,0,0,1,53.5,107Zm9.217-53.1a4.09,4.09,0,0,1,3.835,2.692,15.24,15.24,0,0,1,.633,5.292V76.528h9.33V60a32.124,32.124,0,0,0-.418-5.649,12.517,12.517,0,0,0-1.633-4.54c-1.742-2.775-4.73-4.124-9.133-4.124h-.046a11.26,11.26,0,0,0-3.079.427,10.137,10.137,0,0,0-2.533,1.116,8.947,8.947,0,0,0-3.183,3.314h-.13v-4.1H47.4V76.528H56.73V61.634a18.448,18.448,0,0,1,.192-2.86,7.548,7.548,0,0,1,.788-2.469,4.316,4.316,0,0,1,1.7-1.735,6.037,6.037,0,0,1,2.724-.654c.066,0,.133,0,.2,0C62.457,53.907,62.587,53.9,62.716,53.9Zm-30.5-7.454V76.528h9.341V46.447ZM36.879,31.47a5.428,5.428,0,1,0,5,3.357A5.413,5.413,0,0,0,36.879,31.47Z" transform="translate(0.001)" fill="#fff"/>
</svg>
