<svg xmlns="http://www.w3.org/2000/svg" xmlns:xlink="http://www.w3.org/1999/xlink" width="1165" height="400" viewBox="0 0 1165 400">
  <defs>
    <clipPath id="clip-Logo_-_White_-_400_x_1165">
      <rect width="1165" height="400"/>
    </clipPath>
  </defs>
  <g id="Logo_-_White_-_400_x_1165" data-name="Logo - White - 400 x 1165" clip-path="url(#clip-Logo_-_White_-_400_x_1165)">
    <g id="logo" transform="translate(-20 -4)">
      <path id="Subtraction_1" data-name="Subtraction 1" d="M199.5,399a200.972,200.972,0,0,1-40.206-4.053,198.407,198.407,0,0,1-71.336-30.018,200.081,200.081,0,0,1-72.28-87.774A198.5,198.5,0,0,1,4.053,239.706a201.448,201.448,0,0,1,0-80.413A198.407,198.407,0,0,1,34.071,87.957a200.081,200.081,0,0,1,87.774-72.28A198.5,198.5,0,0,1,159.294,4.053a201.448,201.448,0,0,1,80.413,0,198.408,198.408,0,0,1,71.336,30.018,200.081,200.081,0,0,1,72.28,87.774,198.5,198.5,0,0,1,11.625,37.448,201.448,201.448,0,0,1,0,80.413,198.407,198.407,0,0,1-30.018,71.336,200.081,200.081,0,0,1-87.774,72.28,198.5,198.5,0,0,1-37.448,11.625A200.973,200.973,0,0,1,199.5,399Zm0-383.784a185.647,185.647,0,0,0-37.14,3.744,183.273,183.273,0,0,0-65.9,27.729A184.822,184.822,0,0,0,29.7,127.768,183.358,183.358,0,0,0,18.96,162.36a186.084,186.084,0,0,0,0,74.279,183.273,183.273,0,0,0,27.729,65.9A184.822,184.822,0,0,0,127.768,369.3,183.357,183.357,0,0,0,162.36,380.04a186.082,186.082,0,0,0,74.279,0,183.272,183.272,0,0,0,65.9-27.729A184.822,184.822,0,0,0,369.3,271.232,183.357,183.357,0,0,0,380.04,236.64a186.082,186.082,0,0,0,0-74.279,183.272,183.272,0,0,0-27.729-65.9A184.821,184.821,0,0,0,271.232,29.7,183.358,183.358,0,0,0,236.64,18.96,185.647,185.647,0,0,0,199.5,15.216Z" transform="translate(21 5)" fill="#fff"/>
      <path id="Path_1" data-name="Path 1" d="M100.05,284.85l80.066-182.33h18.593L289.59,284.85H261.32L190.931,136.482,128.7,284.851Z" transform="translate(24.927 11.529)" fill="#fff" stroke="#fff" stroke-width="1"/>
    </g>
    <rect id="Rectangle_1" data-name="Rectangle 1" width="400" height="400" fill="none"/>
    <text id="Peter" transform="translate(454 239)" fill="#fff" font-size="100" font-family="OpenSans, Open Sans" letter-spacing="0.025em"><tspan x="0" y="0">PETER</tspan></text>
    <g id="Group_2" data-name="Group 2" transform="translate(-18 40)">
      <text id="Iello" transform="translate(878 200)" fill="#fff" font-size="100" font-family="OpenSans, Open Sans" letter-spacing="0.025em"><tspan x="0" y="0">IELLO</tspan></text>
      <path id="Path_1-2" data-name="Path 1" d="M100.05,173.166l31.023-70.646h7.2l35.213,70.646H162.536l-27.273-57.487L111.15,173.167Z" transform="translate(698.51 25.98)" fill="#fff"/>
    </g>
  </g>
</svg>
