<svg xmlns="http://www.w3.org/2000/svg" width="107" height="107" viewBox="0 0 107 107">
  <path id="Subtraction_8" data-name="Subtraction 8" d="M53.5,107A53.514,53.514,0,0,1,32.675,4.2,53.514,53.514,0,0,1,74.324,102.8,53.167,53.167,0,0,1,53.5,107Zm8.979-61.979h0V66.328c0,.566,0,.684-.366,1.049l-3.793,3.674v.787h18.4v-.787l-3.656-3.591a1.094,1.094,0,0,1-.417-1.046V40.035a1.09,1.09,0,0,1,.417-1.046l3.743-3.59v-.782H63.84L54.6,57.671,44.084,34.617h-13.6V35.4l4.375,5.278a1.841,1.841,0,0,1,.592,1.531V62.944A2.371,2.371,0,0,1,34.823,65L29.9,70.979v.776H43.86v-.785L38.935,65a2.44,2.44,0,0,1-.683-2.051V45.011L50.514,71.769h1.425Z" transform="translate(0.001)" fill="#fff"/>
</svg>
