<svg xmlns="http://www.w3.org/2000/svg" xmlns:xlink="http://www.w3.org/1999/xlink" width="400" height="400" viewBox="0 0 400 400">
  <defs>
    <clipPath id="clip-Logo_-_Black_-_400_x_400_3">
      <rect width="400" height="400"/>
    </clipPath>
  </defs>
  <g id="Logo_-_Black_-_400_x_400_3" data-name="Logo - Black - 400 x 400 – 3" clip-path="url(#clip-Logo_-_Black_-_400_x_400_3)">
    <g id="logo" transform="translate(48.058 6.058)">
      <path id="Subtraction_1" data-name="Subtraction 1" d="M152.5,305a153.625,153.625,0,0,1-30.734-3.1,151.664,151.664,0,0,1-54.53-22.946,152.944,152.944,0,0,1-55.251-67.1A151.735,151.735,0,0,1,3.1,183.234a153.989,153.989,0,0,1,0-61.468,151.665,151.665,0,0,1,22.946-54.53,152.944,152.944,0,0,1,67.1-55.251A151.734,151.734,0,0,1,121.766,3.1a153.989,153.989,0,0,1,61.468,0,151.665,151.665,0,0,1,54.53,22.946,152.944,152.944,0,0,1,55.251,67.1,151.736,151.736,0,0,1,8.886,28.626,153.989,153.989,0,0,1,0,61.468,151.664,151.664,0,0,1-22.946,54.53,152.944,152.944,0,0,1-67.1,55.251,151.736,151.736,0,0,1-28.626,8.886A153.625,153.625,0,0,1,152.5,305Zm0-293.369a141.911,141.911,0,0,0-28.39,2.862,140.1,140.1,0,0,0-50.371,21.2A141.28,141.28,0,0,0,22.7,97.667a140.161,140.161,0,0,0-8.208,26.443,142.244,142.244,0,0,0,0,56.78,140.1,140.1,0,0,0,21.2,50.371A141.28,141.28,0,0,0,97.667,282.3a140.161,140.161,0,0,0,26.443,8.208,142.244,142.244,0,0,0,56.78,0,140.1,140.1,0,0,0,50.371-21.2A141.28,141.28,0,0,0,282.3,207.333a140.161,140.161,0,0,0,8.208-26.443,142.244,142.244,0,0,0,0-56.78,140.095,140.095,0,0,0-21.2-50.371A141.279,141.279,0,0,0,207.333,22.7a140.161,140.161,0,0,0-26.443-8.208A141.911,141.911,0,0,0,152.5,11.631Z" transform="translate(-0.058 -0.058)"/>
      <path id="Path_1" data-name="Path 1" d="M100.05,241.734,161.183,102.52h14.2l69.39,139.214H223.184L169.44,128.451,121.924,241.735Z" transform="translate(-20.661 -19.258)"/>
    </g>
    <rect id="Rectangle_1" data-name="Rectangle 1" width="306" height="306" transform="translate(47 5)" fill="none"/>
    <text id="Peter" transform="translate(-5 376)" font-size="60" font-family="OpenSans, Open Sans" letter-spacing="0.025em"><tspan x="0" y="0">PETER</tspan></text>
    <g id="Group_3" data-name="Group 3" transform="translate(191.225 312.28)">
      <text id="Iello" transform="translate(47.775 63.72)" font-size="60" font-family="OpenSans, Open Sans" letter-spacing="0.025em"><tspan x="0" y="0">IELLO</tspan></text>
      <path id="Path_1-2" data-name="Path 1" d="M100.05,144.97l18.641-42.45h4.329l21.159,42.45H137.6l-16.388-34.543L106.72,144.97Z" transform="translate(-100.05 -81.189)"/>
    </g>
  </g>
</svg>
