<svg xmlns="http://www.w3.org/2000/svg" width="312.883" height="121.796" viewBox="0 0 312.883 121.796">
  <g id="LOGO" transform="translate(-140 -35.204)">
    <g id="PETER_AIELLO" data-name="PETER AIELLO" transform="translate(269.352 41.372)">
      <g id="Group_7" data-name="Group 7" transform="translate(8.648 30.273)">
        <g id="Group_6" data-name="Group 6" transform="translate(0 0.222)">
          <path id="Path_179" data-name="Path 179" d="M-107.356-57.87a5.444,5.444,0,0,1-2.014,4.54,9.124,9.124,0,0,1-5.764,1.589h-2.287V-44.1h-2.26V-63.534h5.039Q-107.356-63.534-107.356-57.87Zm-10.065,4.188h2.034a7.56,7.56,0,0,0,4.348-.971,3.577,3.577,0,0,0,1.343-3.111,3.353,3.353,0,0,0-1.263-2.872,6.6,6.6,0,0,0-3.935-.944h-2.526ZM-92.452-44.1h-10.836V-63.534h10.836v2.008h-8.576v6.262h8.057v1.994h-8.057v7.153h8.576Zm10.291,0h-2.26v-17.43h-6.156v-2.008h14.572v2.008h-6.156Zm19.916,0H-73.08V-63.534h10.836v2.008H-70.82v6.262h8.057v1.994H-70.82v7.153h8.576Zm6.568-8.084V-44.1h-2.26V-63.534h5.331q3.576,0,5.285,1.369a4.965,4.965,0,0,1,1.708,4.122q0,3.856-3.909,5.212l5.278,8.735h-2.672l-4.707-8.084Zm0-1.941h3.1a5.35,5.35,0,0,0,3.51-.951,3.537,3.537,0,0,0,1.117-2.852A3.245,3.245,0,0,0-49.089-60.7a6.159,6.159,0,0,0-3.65-.851h-2.938Z" transform="translate(119.681 63.534)" fill="#fff"/>
        </g>
        <g id="Group_5" data-name="Group 5" transform="translate(83.1)">
          <path id="Path_164" data-name="Path 164" d="M19.525,20.3,0,11.723V9.732L19.525,0V3.027L3.637,10.565l15.888,6.664Z" transform="translate(20.297 0.45) rotate(90)" fill="#fff"/>
          <path id="Path_165" data-name="Path 165" d="M19.525,20.3,0,11.723V9.732L19.525,0V3.027L3.637,10.565l15.888,6.664Z" transform="translate(20.297 0.45) rotate(90)" fill="#fff"/>
          <path id="Path_180" data-name="Path 180" d="M-109.6-45.293V-64.95h2.286v19.656Zm18.634,0h-10.957V-64.95h10.957v2.03h-8.672v6.332h8.148v2.017h-8.148v7.233h8.672Zm4.356,0V-64.95h2.286v17.586h8.672v2.07Zm14.292,0V-64.95h2.286v17.586h8.672v2.07Zm30.8-9.855A10.821,10.821,0,0,1-43.9-47.727a8.39,8.39,0,0,1-6.635,2.7,8.5,8.5,0,0,1-6.7-2.655q-2.36-2.655-2.36-7.5,0-4.8,2.366-7.442a8.556,8.556,0,0,1,6.722-2.642A8.373,8.373,0,0,1-43.9-62.57,10.81,10.81,0,0,1-41.515-55.148Zm-15.663,0q0,3.993,1.7,6.057a6.035,6.035,0,0,0,4.941,2.064A5.977,5.977,0,0,0-45.6-49.085q1.667-2.057,1.667-6.064a9.383,9.383,0,0,0-1.66-6.017,5.95,5.95,0,0,0-4.914-2.05,6.066,6.066,0,0,0-4.968,2.064A9.233,9.233,0,0,0-57.178-55.148Z" transform="translate(133.299 65.259)" fill="#fff"/>
        </g>
      </g>
    </g>
    <g id="AIELLO_SYMBOL" data-name="AIELLO SYMBOL" transform="translate(140 35.204)">
      <path id="Subtraction_1" data-name="Subtraction 1" d="M60.9,121.8a61.347,61.347,0,0,1-12.273-1.237A60.564,60.564,0,0,1,26.849,111.4,61.076,61.076,0,0,1,4.786,84.6,60.59,60.59,0,0,1,1.237,73.171a61.49,61.49,0,0,1,0-24.546A60.564,60.564,0,0,1,10.4,26.849,61.076,61.076,0,0,1,37.194,4.786,60.59,60.59,0,0,1,48.625,1.237a61.49,61.49,0,0,1,24.546,0A60.564,60.564,0,0,1,94.947,10.4,61.076,61.076,0,0,1,117.01,37.194a60.592,60.592,0,0,1,3.548,11.431,61.491,61.491,0,0,1,0,24.546A60.563,60.563,0,0,1,111.4,94.947,61.076,61.076,0,0,1,84.6,117.01a60.591,60.591,0,0,1-11.431,3.548A61.347,61.347,0,0,1,60.9,121.8ZM60.958,3.92A57.4,57.4,0,0,0,49.475,5.078,56.665,56.665,0,0,0,29.1,13.651,57.144,57.144,0,0,0,8.458,38.72a56.691,56.691,0,0,0-3.32,10.7,57.534,57.534,0,0,0,0,22.966,56.665,56.665,0,0,0,8.573,20.374A57.144,57.144,0,0,0,38.78,113.4a56.69,56.69,0,0,0,10.7,3.32,57.534,57.534,0,0,0,22.966,0,56.665,56.665,0,0,0,20.374-8.573,57.144,57.144,0,0,0,20.643-25.069,56.692,56.692,0,0,0,3.32-10.7,57.534,57.534,0,0,0,0-22.966,56.665,56.665,0,0,0-8.573-20.374A57.144,57.144,0,0,0,83.137,8.4a56.691,56.691,0,0,0-10.7-3.32A57.4,57.4,0,0,0,60.958,3.92Z" transform="translate(0 0)" fill="#fff"/>
      <path id="Path_1" data-name="Path 1" d="M55.649,57.85,0,33.413V27.738L55.649,0V8.628L10.365,30.112,55.649,49.106Z" transform="translate(90.687 33.235) rotate(90)" fill="#fff"/>
    </g>
    <path id="CODING_EXPERIENCE" data-name="CODING EXPERIENCE" d="M8.908-14.891h1.386a3.875,3.875,0,0,0-.5-1.466,3.607,3.607,0,0,0-.948-1.058,4.156,4.156,0,0,0-1.3-.642,5.353,5.353,0,0,0-1.546-.219,4.984,4.984,0,0,0-2.122.43A4.386,4.386,0,0,0,2.337-16.67,5.149,5.149,0,0,0,1.4-14.927a6.948,6.948,0,0,0-.321,2.137,7.344,7.344,0,0,0,.3,2.13,4.919,4.919,0,0,0,.9,1.721,4.154,4.154,0,0,0,1.5,1.145,5.02,5.02,0,0,0,2.115.416A4.389,4.389,0,0,0,9.039-8.473,4.731,4.731,0,0,0,10.4-11.536H9.01a3.974,3.974,0,0,1-.263,1.2,2.887,2.887,0,0,1-.605.955,2.757,2.757,0,0,1-.919.627,3.092,3.092,0,0,1-1.218.226,3.428,3.428,0,0,1-1.6-.35,3.134,3.134,0,0,1-1.1-.941,4.03,4.03,0,0,1-.635-1.386,6.749,6.749,0,0,1-.2-1.685,6.033,6.033,0,0,1,.2-1.575A4.061,4.061,0,0,1,3.3-15.817a3.152,3.152,0,0,1,1.094-.941,3.383,3.383,0,0,1,1.6-.35,3.219,3.219,0,0,1,1.889.554A2.576,2.576,0,0,1,8.908-14.891Zm4.011,2.071a6,6,0,0,1,.2-1.553,4.219,4.219,0,0,1,.642-1.378,3.281,3.281,0,0,1,1.123-.985,3.378,3.378,0,0,1,1.634-.372,3.378,3.378,0,0,1,1.634.372,3.281,3.281,0,0,1,1.123.985,4.219,4.219,0,0,1,.642,1.378,6,6,0,0,1,.2,1.553,6,6,0,0,1-.2,1.553,4.219,4.219,0,0,1-.642,1.378,3.281,3.281,0,0,1-1.123.985,3.378,3.378,0,0,1-1.634.372A3.378,3.378,0,0,1,14.888-8.9a3.281,3.281,0,0,1-1.123-.985,4.219,4.219,0,0,1-.642-1.378A6,6,0,0,1,12.919-12.82Zm-1.386,0a6.712,6.712,0,0,0,.314,2.049,5.164,5.164,0,0,0,.941,1.743,4.514,4.514,0,0,0,1.561,1.2,5,5,0,0,0,2.173.445A5,5,0,0,0,18.7-7.824a4.514,4.514,0,0,0,1.561-1.2A5.164,5.164,0,0,0,21.2-10.77a6.712,6.712,0,0,0,.314-2.049,6.712,6.712,0,0,0-.314-2.049,5.164,5.164,0,0,0-.941-1.743A4.592,4.592,0,0,0,18.7-17.823a4.931,4.931,0,0,0-2.173-.452,4.931,4.931,0,0,0-2.173.452,4.592,4.592,0,0,0-1.561,1.211,5.164,5.164,0,0,0-.941,1.743A6.712,6.712,0,0,0,11.533-12.82Zm13.055,4.04V-16.86h2.334a4.27,4.27,0,0,1,1.619.27,2.627,2.627,0,0,1,1.072.788,3.2,3.2,0,0,1,.6,1.254,6.972,6.972,0,0,1,.182,1.67,5.946,5.946,0,0,1-.2,1.641,4,4,0,0,1-.5,1.13A2.633,2.633,0,0,1,29-9.392a3.4,3.4,0,0,1-.78.4,3.273,3.273,0,0,1-.744.175,5.812,5.812,0,0,1-.583.036ZM23.2-18.027V-7.612h3.574a6.252,6.252,0,0,0,2.246-.365,3.919,3.919,0,0,0,1.561-1.058,4.349,4.349,0,0,0,.9-1.707,8.43,8.43,0,0,0,.292-2.327,4.906,4.906,0,0,0-1.3-3.734,5.193,5.193,0,0,0-3.7-1.225Zm10.327,0V-7.612h1.386V-18.027Zm3.7,0V-7.612h1.313V-15.97h.029l5.441,8.358h1.517V-18.027H44.222v8.446h-.029l-5.485-8.446ZM55.57-8.91l.365,1.3h.875V-13.1H52.244v1.167H55.57a3.541,3.541,0,0,1-.19,1.335,3.038,3.038,0,0,1-.649,1.079,3.029,3.029,0,0,1-1.058.722,3.714,3.714,0,0,1-1.444.263,3.308,3.308,0,0,1-1.539-.343,3.36,3.36,0,0,1-1.116-.919,4.1,4.1,0,0,1-.686-1.327,5.254,5.254,0,0,1-.233-1.568,6.511,6.511,0,0,1,.2-1.626,4.359,4.359,0,0,1,.635-1.415,3.273,3.273,0,0,1,1.109-1,3.283,3.283,0,0,1,1.626-.379,4.245,4.245,0,0,1,1.1.139,3.03,3.03,0,0,1,.926.416,2.441,2.441,0,0,1,.686.707,2.725,2.725,0,0,1,.379,1.028h1.386a4.21,4.21,0,0,0-.547-1.568,3.68,3.68,0,0,0-.992-1.072,4.042,4.042,0,0,0-1.342-.62,6.278,6.278,0,0,0-1.6-.2,4.818,4.818,0,0,0-2.166.459,4.536,4.536,0,0,0-1.546,1.233,5.332,5.332,0,0,0-.934,1.8,7.385,7.385,0,0,0-.314,2.166,5.86,5.86,0,0,0,.335,1.969,5.074,5.074,0,0,0,.977,1.677,4.714,4.714,0,0,0,1.561,1.16,4.863,4.863,0,0,0,2.086.43,4.926,4.926,0,0,0,1.823-.357A3.463,3.463,0,0,0,55.57-8.91Zm7.337-9.117V-7.612h7.235V-8.779H64.293v-3.6H69.7v-1.167H64.293V-16.86H70.1v-1.167ZM74.3-12.966,70.682-7.612h1.546l2.888-4.3,2.8,4.3h1.692l-3.661-5.353,3.442-5.062H77.844l-2.713,4.07-2.6-4.07H70.871Zm7.818-.073V-16.86h2.713a2.548,2.548,0,0,1,1.728.489,1.808,1.808,0,0,1,.547,1.422,1.831,1.831,0,0,1-.547,1.429,2.475,2.475,0,0,1-1.728.481Zm-1.386-4.989V-7.612h1.386v-4.259H85.3a3.172,3.172,0,0,0,2.385-.8,3.092,3.092,0,0,0,.81-2.275,3.066,3.066,0,0,0-.81-2.268,3.234,3.234,0,0,0-2.385-.81Zm9.452,0V-7.612h7.235V-8.779H91.569v-3.6h5.412v-1.167H91.569V-16.86h5.805v-1.167Zm8.912,0V-7.612h1.386v-4.449h3.384a1.839,1.839,0,0,1,.817.153,1.368,1.368,0,0,1,.5.408,1.693,1.693,0,0,1,.277.6q.088.343.146.722a5.083,5.083,0,0,1,.088.773q.015.394.029.737a4.5,4.5,0,0,0,.066.62.87.87,0,0,0,.2.438h1.546a1.78,1.78,0,0,1-.328-.605,4.745,4.745,0,0,1-.168-.722,6.714,6.714,0,0,1-.073-.773q-.015-.394-.044-.773a6.707,6.707,0,0,0-.124-.729,2.214,2.214,0,0,0-.248-.635,1.6,1.6,0,0,0-.452-.489,1.856,1.856,0,0,0-.737-.292v-.029a2.215,2.215,0,0,0,1.378-.977,3.161,3.161,0,0,0,.43-1.663,2.51,2.51,0,0,0-.839-2A3.429,3.429,0,0,0,104-18.027Zm4.274,4.8h-2.888V-16.86h3.442a1.8,1.8,0,0,1,1.415.5,1.868,1.868,0,0,1,.438,1.284,1.911,1.911,0,0,1-.2.926,1.558,1.558,0,0,1-.525.569,2.005,2.005,0,0,1-.766.284A5.586,5.586,0,0,1,103.37-13.228Zm5.776-4.8V-7.612h1.386V-18.027Zm3.72,0V-7.612H120.1V-8.779h-5.849v-3.6h5.412v-1.167h-5.412V-16.86h5.805v-1.167Zm8.9,0V-7.612h1.313V-15.97h.029l5.441,8.358h1.517V-18.027H128.75v8.446h-.029l-5.485-8.446Zm17.868,3.136h1.386a3.875,3.875,0,0,0-.5-1.466,3.607,3.607,0,0,0-.948-1.058,4.156,4.156,0,0,0-1.3-.642,5.354,5.354,0,0,0-1.546-.219,4.984,4.984,0,0,0-2.122.43,4.386,4.386,0,0,0-1.546,1.174,5.15,5.15,0,0,0-.941,1.743,6.948,6.948,0,0,0-.321,2.137,7.344,7.344,0,0,0,.3,2.13A4.919,4.919,0,0,0,133-8.94a4.154,4.154,0,0,0,1.5,1.145,5.02,5.02,0,0,0,2.115.416,4.389,4.389,0,0,0,3.151-1.094,4.731,4.731,0,0,0,1.357-3.063h-1.386a3.974,3.974,0,0,1-.263,1.2,2.887,2.887,0,0,1-.605.955,2.757,2.757,0,0,1-.919.627,3.092,3.092,0,0,1-1.218.226,3.428,3.428,0,0,1-1.6-.35,3.134,3.134,0,0,1-1.1-.941,4.03,4.03,0,0,1-.635-1.386,6.749,6.749,0,0,1-.2-1.685,6.033,6.033,0,0,1,.2-1.575,4.061,4.061,0,0,1,.635-1.349,3.152,3.152,0,0,1,1.094-.941,3.384,3.384,0,0,1,1.6-.35,3.219,3.219,0,0,1,1.889.554A2.576,2.576,0,0,1,139.632-14.891Zm3.209-3.136V-7.612h7.235V-8.779h-5.849v-3.6h5.412v-1.167h-5.412V-16.86h5.805v-1.167Z" transform="translate(278 136.779)" fill="#fff"/>
  </g>
</svg>
