<svg xmlns="http://www.w3.org/2000/svg" xmlns:xlink="http://www.w3.org/1999/xlink" width="1165" height="400" viewBox="0 0 1165 400">
  <defs>
    <clipPath id="clip-Logo_-_white_-_400_x_1165_2">
      <rect width="1165" height="400"/>
    </clipPath>
  </defs>
  <g id="Logo_-_white_-_400_x_1165_2" data-name="Logo - white - 400 x 1165 – 2" clip-path="url(#clip-Logo_-_white_-_400_x_1165_2)">
    <g id="logo" transform="translate(-20 -4)">
      <path id="Subtraction_1" data-name="Subtraction 1" d="M199.5,399a200.972,200.972,0,0,1-40.206-4.053,198.407,198.407,0,0,1-71.336-30.018,200.081,200.081,0,0,1-72.28-87.774A198.5,198.5,0,0,1,4.053,239.706a201.448,201.448,0,0,1,0-80.413A198.407,198.407,0,0,1,34.071,87.957a200.081,200.081,0,0,1,87.774-72.28A198.5,198.5,0,0,1,159.294,4.053a201.448,201.448,0,0,1,80.413,0,198.408,198.408,0,0,1,71.336,30.018,200.081,200.081,0,0,1,72.28,87.774,198.5,198.5,0,0,1,11.625,37.448,201.448,201.448,0,0,1,0,80.413,198.407,198.407,0,0,1-30.018,71.336,200.081,200.081,0,0,1-87.774,72.28,198.5,198.5,0,0,1-37.448,11.625A200.973,200.973,0,0,1,199.5,399Zm0-383.784a185.647,185.647,0,0,0-37.14,3.744,183.273,183.273,0,0,0-65.9,27.729A184.822,184.822,0,0,0,29.7,127.768,183.358,183.358,0,0,0,18.96,162.36a186.084,186.084,0,0,0,0,74.279,183.273,183.273,0,0,0,27.729,65.9A184.822,184.822,0,0,0,127.768,369.3,183.357,183.357,0,0,0,162.36,380.04a186.082,186.082,0,0,0,74.279,0,183.272,183.272,0,0,0,65.9-27.729A184.822,184.822,0,0,0,369.3,271.232,183.357,183.357,0,0,0,380.04,236.64a186.082,186.082,0,0,0,0-74.279,183.272,183.272,0,0,0-27.729-65.9A184.821,184.821,0,0,0,271.232,29.7,183.358,183.358,0,0,0,236.64,18.96,185.647,185.647,0,0,0,199.5,15.216Z" transform="translate(21 5)" fill="#212224"/>
      <path id="Path_1" data-name="Path 1" d="M100.05,284.85l80.066-182.33h18.593L289.59,284.85H261.32L190.931,136.482,128.7,284.851Z" transform="translate(24.927 11.529)" fill="#212224"/>
    </g>
    <rect id="Rectangle_1" data-name="Rectangle 1" width="400" height="400" fill="none"/>
    <path id="Path_3" data-name="Path 3" d="M55.078-50.586q0,10.84-7.4,16.675T26.514-28.076h-8.4V0h-8.3V-71.387H28.32Q55.078-71.387,55.078-50.586ZM18.115-35.205h7.471q11.035,0,15.967-3.564T46.484-50.2q0-7.08-4.639-10.547T27.393-64.209H18.115ZM112.314,0H72.52V-71.387h39.795v7.373H80.82v23h29.59v7.324H80.82v26.27h31.494Zm40.293,0h-8.3V-64.014H121.7v-7.373h53.516v7.373H152.607Zm75.645,0H188.457V-71.387h39.795v7.373H196.758v23h29.59v7.324h-29.59v26.27h31.494Zm26.621-29.687V0h-8.3V-71.387h19.58q13.135,0,19.409,5.029t6.274,15.137q0,14.16-14.355,19.141L296.865,0h-9.814L269.766-29.687Zm0-7.129H266.25q8.789,0,12.891-3.491t4.1-10.474q0-7.08-4.175-10.205t-13.4-3.125H254.873Z" transform="translate(454 239)" fill="#212224"/>
    <g id="Group_1" data-name="Group 1" transform="translate(-18 40)">
      <path id="Path_4" data-name="Path 4" d="M9.814,0V-71.387h8.3V0ZM79.99,0H40.2V-71.387H79.99v7.373H48.5v23h29.59v7.324H48.5v26.27H79.99Zm18.32,0V-71.387h8.3V-7.52h31.494V0Zm54.4,0V-71.387h8.3V-7.52H192.51V0ZM267.08-35.791q0,17.139-8.667,26.953T234.316.977q-15.771,0-24.341-9.644t-8.569-27.222q0-17.432,8.594-27.026t24.414-9.595q15.381,0,24.023,9.766T267.08-35.791Zm-56.885,0q0,14.5,6.177,22t17.944,7.5q11.865,0,17.92-7.471t6.055-22.021q0-14.4-6.03-21.851t-17.847-7.446q-11.865,0-18.042,7.5T210.2-35.791Z" transform="translate(878 200)" fill="#212224"/>
      <path id="Path_1-2" data-name="Path 1" d="M100.05,173.166l31.023-70.646h7.2l35.213,70.646H162.536l-27.273-57.487L111.15,173.167Z" transform="translate(698.51 25.98)" fill="#212224"/>
    </g>
  </g>
</svg>
