<svg xmlns="http://www.w3.org/2000/svg" width="312.883" height="121.796"><g data-name="PETER AIELLO"><g data-name="Group 7"><g data-name="Group 6"><path data-name="Path 179" d="M150.325 42.327a5.444 5.444 0 01-2.014 4.54 9.124 9.124 0 01-5.764 1.589h-2.287v7.641H138V36.663h5.039q7.286 0 7.286 5.664zm-10.065 4.188h2.034a7.56 7.56 0 004.348-.971 3.577 3.577 0 001.343-3.111 3.353 3.353 0 00-1.263-2.872 6.6 6.6 0 00-3.935-.944h-2.526zm24.969 9.582h-10.836V36.663h10.836v2.008h-8.576v6.262h8.057v1.994h-8.057v7.153h8.576zm10.291 0h-2.26v-17.43h-6.156v-2.008h14.572v2.008h-6.156zm19.916 0h-10.835V36.663h10.836v2.008h-8.576v6.262h8.057v1.994h-8.057v7.153h8.576zm6.568-8.084v8.084h-2.26V36.663h5.331q3.576 0 5.285 1.369a4.965 4.965 0 011.708 4.122q0 3.856-3.909 5.212l5.278 8.735h-2.672l-4.707-8.084zm0-1.941h3.1a5.35 5.35 0 003.51-.951 3.537 3.537 0 001.117-2.852 3.245 3.245 0 00-1.139-2.772 6.159 6.159 0 00-3.65-.851h-2.938z" fill="#fff"/></g><g data-name="Group 5" fill="#fff"><path data-name="Path 164" d="M221.097 56.416l8.577-19.525h1.991l9.732 19.525h-3.027l-7.538-15.888-6.664 15.888z"/><path data-name="Path 165" d="M221.097 56.416l8.577-19.525h1.991l9.732 19.525h-3.027l-7.538-15.888-6.664 15.888z"/><path data-name="Path 180" d="M244.799 56.407V36.75h2.286v19.656zm18.634 0h-10.957V36.75h10.957v2.03h-8.672v6.332h8.148v2.017h-8.148v7.233h8.672zm4.356 0V36.75h2.286v17.586h8.672v2.07zm14.292 0V36.75h2.286v17.586h8.672v2.07zm30.8-9.855a10.821 10.821 0 01-2.382 7.421 8.39 8.39 0 01-6.635 2.7 8.5 8.5 0 01-6.7-2.655q-2.36-2.655-2.36-7.5 0-4.8 2.366-7.442a8.556 8.556 0 016.722-2.642 8.373 8.373 0 016.607 2.696 10.81 10.81 0 012.385 7.422zm-15.663 0q0 3.993 1.7 6.057a6.035 6.035 0 004.941 2.064 5.977 5.977 0 004.94-2.058q1.667-2.057 1.667-6.064a9.383 9.383 0 00-1.66-6.017 5.95 5.95 0 00-4.914-2.05 6.066 6.066 0 00-4.968 2.064 9.233 9.233 0 00-1.703 6.004z"/></g></g></g><g data-name="AIELLO SYMBOL" fill="#fff"><path data-name="Subtraction 1" d="M60.9 121.8a61.347 61.347 0 01-12.273-1.237 60.564 60.564 0 01-21.778-9.163A61.076 61.076 0 014.786 84.6a60.59 60.59 0 01-3.549-11.429 61.49 61.49 0 010-24.546A60.564 60.564 0 0110.4 26.849 61.076 61.076 0 0137.194 4.786a60.59 60.59 0 0111.431-3.549 61.49 61.49 0 0124.546 0A60.564 60.564 0 0194.947 10.4a61.076 61.076 0 0122.063 26.794 60.592 60.592 0 013.548 11.431 61.491 61.491 0 010 24.546 60.563 60.563 0 01-9.158 21.776 61.076 61.076 0 01-26.8 22.063 60.591 60.591 0 01-11.431 3.548A61.347 61.347 0 0160.9 121.8zm.058-117.88a57.4 57.4 0 00-11.483 1.158A56.665 56.665 0 0029.1 13.651 57.144 57.144 0 008.458 38.72a56.691 56.691 0 00-3.32 10.7 57.534 57.534 0 000 22.966 56.665 56.665 0 008.573 20.374A57.144 57.144 0 0038.78 113.4a56.69 56.69 0 0010.7 3.32 57.534 57.534 0 0022.966 0 56.665 56.665 0 0020.374-8.573 57.144 57.144 0 0020.643-25.069 56.692 56.692 0 003.32-10.7 57.534 57.534 0 000-22.966 56.665 56.665 0 00-8.573-20.374A57.144 57.144 0 0083.137 8.4a56.691 56.691 0 00-10.7-3.32 57.4 57.4 0 00-11.479-1.16z"/><path data-name="Path 1" d="M32.837 88.884l24.437-55.649h5.675l27.738 55.649h-8.628L60.575 43.6 41.581 88.884z"/></g><path data-name="CODING EXPERIENCE" d="M146.908 86.684h1.386a3.875 3.875 0 00-.5-1.466 3.607 3.607 0 00-.948-1.058 4.156 4.156 0 00-1.3-.642 5.353 5.353 0 00-1.546-.219 4.984 4.984 0 00-2.122.43 4.386 4.386 0 00-1.541 1.176 5.149 5.149 0 00-.937 1.743 6.948 6.948 0 00-.321 2.137 7.344 7.344 0 00.3 2.13 4.919 4.919 0 00.9 1.721 4.154 4.154 0 001.5 1.145 5.02 5.02 0 002.115.416 4.389 4.389 0 003.145-1.095 4.731 4.731 0 001.361-3.063h-1.39a3.974 3.974 0 01-.263 1.2 2.887 2.887 0 01-.605.955 2.757 2.757 0 01-.919.627 3.092 3.092 0 01-1.218.226 3.428 3.428 0 01-1.6-.35 3.134 3.134 0 01-1.1-.941 4.03 4.03 0 01-.635-1.386 6.749 6.749 0 01-.2-1.685 6.033 6.033 0 01.2-1.575 4.061 4.061 0 01.63-1.352 3.152 3.152 0 011.094-.941 3.383 3.383 0 011.6-.35 3.219 3.219 0 011.889.554 2.576 2.576 0 011.025 1.663zm4.011 2.071a6 6 0 01.2-1.553 4.219 4.219 0 01.642-1.378 3.281 3.281 0 011.123-.985 3.378 3.378 0 011.634-.372 3.378 3.378 0 011.634.372 3.281 3.281 0 011.123.985 4.219 4.219 0 01.642 1.378 6 6 0 01.2 1.553 6 6 0 01-.2 1.553 4.219 4.219 0 01-.642 1.378 3.281 3.281 0 01-1.123.985 3.378 3.378 0 01-1.634.372 3.378 3.378 0 01-1.63-.368 3.281 3.281 0 01-1.123-.985 4.219 4.219 0 01-.642-1.378 6 6 0 01-.204-1.557zm-1.386 0a6.712 6.712 0 00.314 2.049 5.164 5.164 0 00.941 1.743 4.514 4.514 0 001.561 1.2 5 5 0 002.173.445 5 5 0 002.178-.441 4.514 4.514 0 001.561-1.2 5.164 5.164 0 00.939-1.746 6.712 6.712 0 00.314-2.049 6.712 6.712 0 00-.314-2.049 5.164 5.164 0 00-.941-1.743 4.592 4.592 0 00-1.559-1.212 4.931 4.931 0 00-2.173-.452 4.931 4.931 0 00-2.173.452 4.592 4.592 0 00-1.561 1.211 5.164 5.164 0 00-.941 1.743 6.712 6.712 0 00-.319 2.049zm13.055 4.04v-8.08h2.334a4.27 4.27 0 011.619.27 2.627 2.627 0 011.072.788 3.2 3.2 0 01.6 1.254 6.972 6.972 0 01.182 1.67 5.946 5.946 0 01-.2 1.641 4 4 0 01-.5 1.13 2.633 2.633 0 01-.695.715 3.4 3.4 0 01-.78.4 3.273 3.273 0 01-.744.175 5.812 5.812 0 01-.583.036zm-1.388-9.247v10.415h3.574a6.252 6.252 0 002.246-.365 3.919 3.919 0 001.561-1.058 4.349 4.349 0 00.9-1.707 8.43 8.43 0 00.292-2.327 4.906 4.906 0 00-1.3-3.734 5.193 5.193 0 00-3.7-1.225zm10.327 0v10.415h1.386V83.548zm3.7 0v10.415h1.313v-8.358h.029l5.441 8.358h1.517V83.548h-1.305v8.446h-.029l-5.485-8.446zm18.343 9.117l.365 1.3h.875v-5.49h-4.566v1.167h3.326a3.541 3.541 0 01-.19 1.335 3.038 3.038 0 01-.649 1.079 3.029 3.029 0 01-1.058.722 3.714 3.714 0 01-1.444.263 3.308 3.308 0 01-1.539-.343 3.36 3.36 0 01-1.116-.919 4.1 4.1 0 01-.686-1.327 5.254 5.254 0 01-.233-1.568 6.511 6.511 0 01.2-1.626 4.359 4.359 0 01.635-1.415 3.273 3.273 0 011.109-1 3.283 3.283 0 011.626-.379 4.245 4.245 0 011.1.139 3.03 3.03 0 01.926.416 2.441 2.441 0 01.686.707 2.725 2.725 0 01.379 1.028h1.386a4.21 4.21 0 00-.547-1.568 3.68 3.68 0 00-.992-1.072 4.042 4.042 0 00-1.342-.62 6.278 6.278 0 00-1.6-.2 4.818 4.818 0 00-2.166.459 4.536 4.536 0 00-1.546 1.233 5.332 5.332 0 00-.934 1.8 7.385 7.385 0 00-.314 2.166 5.86 5.86 0 00.335 1.969 5.074 5.074 0 00.977 1.677 4.714 4.714 0 001.561 1.16 4.863 4.863 0 002.086.43 4.926 4.926 0 001.823-.357 3.463 3.463 0 001.527-1.166zm7.337-9.117v10.415h7.235v-1.167h-5.849v-3.6h5.407v-1.167h-5.407v-3.314h5.807v-1.167zm11.393 5.061l-3.618 5.354h1.546l2.888-4.3 2.8 4.3h1.692l-3.661-5.353 3.442-5.062h-1.545l-2.713 4.07-2.6-4.07h-1.66zm7.818-.073v-3.821h2.713a2.548 2.548 0 011.728.489 1.808 1.808 0 01.547 1.422 1.831 1.831 0 01-.547 1.429 2.475 2.475 0 01-1.728.481zm-1.386-4.989v10.416h1.386v-4.259h3.182a3.172 3.172 0 002.385-.8 3.092 3.092 0 00.81-2.275 3.066 3.066 0 00-.81-2.268 3.234 3.234 0 00-2.385-.81zm9.452 0v10.416h7.235v-1.167h-5.85v-3.6h5.412v-1.167h-5.412v-3.314h5.805v-1.167zm8.912 0v10.416h1.386v-4.449h3.384a1.839 1.839 0 01.817.153 1.368 1.368 0 01.5.408 1.693 1.693 0 01.277.6q.088.343.146.722a5.083 5.083 0 01.088.773l.029.737a4.5 4.5 0 00.066.62.87.87 0 00.2.438h1.546a1.78 1.78 0 01-.328-.605 4.745 4.745 0 01-.168-.722 6.714 6.714 0 01-.073-.773q-.015-.394-.044-.773a6.707 6.707 0 00-.124-.729 2.214 2.214 0 00-.248-.635 1.6 1.6 0 00-.452-.489 1.856 1.856 0 00-.737-.292v-.029a2.215 2.215 0 001.378-.977 3.161 3.161 0 00.43-1.663 2.51 2.51 0 00-.839-2 3.429 3.429 0 00-2.33-.73zm4.274 4.8h-2.888v-3.632h3.442a1.8 1.8 0 011.415.5 1.868 1.868 0 01.438 1.284 1.911 1.911 0 01-.2.926 1.558 1.558 0 01-.525.569 2.005 2.005 0 01-.766.284 5.586 5.586 0 01-.916.069zm5.776-4.8v10.416h1.386V83.548zm3.72 0v10.416h7.234v-1.167h-5.849v-3.6h5.412v-1.167h-5.412v-3.314h5.805v-1.167zm8.9 0v10.416h1.313v-8.358h.029l5.441 8.358h1.517V83.548h-1.316v8.446h-.029l-5.485-8.446zm17.868 3.136h1.386a3.875 3.875 0 00-.5-1.466 3.607 3.607 0 00-.948-1.058 4.156 4.156 0 00-1.3-.642 5.354 5.354 0 00-1.546-.219 4.984 4.984 0 00-2.122.43 4.386 4.386 0 00-1.546 1.174 5.15 5.15 0 00-.941 1.743 6.948 6.948 0 00-.321 2.137 7.344 7.344 0 00.3 2.13 4.919 4.919 0 00.904 1.723 4.154 4.154 0 001.5 1.145 5.02 5.02 0 002.115.416 4.389 4.389 0 003.151-1.094 4.731 4.731 0 001.357-3.063h-1.386a3.974 3.974 0 01-.263 1.2 2.887 2.887 0 01-.605.955 2.757 2.757 0 01-.919.627 3.092 3.092 0 01-1.218.226 3.428 3.428 0 01-1.6-.35 3.134 3.134 0 01-1.1-.941 4.03 4.03 0 01-.635-1.386 6.749 6.749 0 01-.2-1.685 6.033 6.033 0 01.2-1.575 4.061 4.061 0 01.635-1.349 3.152 3.152 0 011.094-.941 3.384 3.384 0 011.6-.35 3.219 3.219 0 011.889.554 2.576 2.576 0 011.017 1.66zm3.209-3.136v10.416h7.235v-1.167h-5.849v-3.6h5.412v-1.167h-5.412v-3.314h5.805v-1.167z" fill="#fff"/></svg>